<?xml version="1.0" standalone="no"?>
<!DOCTYPE svg PUBLIC "-//W3C//DTD SVG 20010904//EN"
 "http://www.w3.org/TR/2001/REC-SVG-20010904/DTD/svg10.dtd">
<svg version="1.0" xmlns="http://www.w3.org/2000/svg"
 width="256.000000pt" height="256.000000pt" viewBox="0 0 256.000000 256.000000"
 preserveAspectRatio="xMidYMid meet">
<metadata>
Created by potrace 1.16, written by Peter Selinger 2001-2019
</metadata>
<g transform="translate(0.000000,256.000000) scale(0.100000,-0.100000)"
fill="#000000" stroke="none">
<path d="M0 1965 c0 -588 0 -595 20 -595 11 0 20 -4 20 -9 0 -5 107 -9 237
-10 130 0 245 -3 255 -7 11 -3 25 -1 33 6 10 8 15 8 20 0 4 -6 23 -10 44 -8
35 3 36 4 41 48 5 44 6 45 38 43 18 0 36 -4 39 -7 3 -3 10 -41 16 -85 11 -81
27 -110 27 -47 0 18 -5 92 -11 164 -10 125 -10 134 10 175 31 63 25 68 -19 17
-22 -24 -43 -41 -47 -36 -4 4 -8 30 -7 57 0 27 -3 49 -8 49 -4 0 -8 9 -8 21 0
11 4 18 9 15 5 -3 12 2 15 11 7 18 -10 34 -30 26 -19 -7 -37 35 -29 73 3 19
14 52 24 75 13 27 17 54 13 84 -3 30 0 50 12 66 11 16 16 45 16 90 0 67 15
129 31 129 5 0 9 7 9 15 0 8 6 12 14 9 8 -3 22 8 34 29 12 18 31 42 42 52 11
10 25 35 30 55 10 36 12 38 82 54 40 9 96 21 123 25 30 5 -181 9 -522 10
l-573 1 0 -595z m715 373 c-4 -55 -13 -103 -22 -117 -15 -23 -18 -24 -112 -17
-53 3 -116 6 -141 6 l-45 1 35 30 c77 68 259 189 283 189 5 0 5 -42 2 -92z
m-113 -681 c18 3 38 9 43 14 18 14 36 -7 42 -48 4 -34 2 -40 -13 -40 -11 0
-26 5 -34 12 -8 7 -27 15 -43 17 -22 4 -28 1 -33 -17 -12 -47 -96 -60 -102
-15 -2 14 -8 30 -13 37 -12 13 25 43 53 43 10 0 18 5 18 11 0 7 9 5 24 -5 17
-11 36 -14 58 -9z"/>
<path d="M1495 2544 c229 -41 450 -145 621 -290 l50 -43 -1 -133 c-1 -73 -7
-150 -13 -171 -10 -39 -1 -100 18 -112 14 -9 12 -107 -2 -177 -9 -43 -9 -66
-1 -88 6 -15 7 -32 3 -37 -4 -4 -10 -32 -13 -61 -7 -60 3 -71 50 -54 18 7 21
11 11 11 -11 1 -18 9 -18 22 0 11 5 17 10 14 14 -9 49 35 50 61 0 18 8 22 50
28 28 4 55 4 59 1 5 -3 44 0 86 6 42 6 79 9 81 7 2 -3 8 -29 13 -59 6 -35 9
141 10 519 l1 572 -572 -1 c-530 -1 -567 -2 -493 -15z"/>
<path d="M1332 2425 c-13 -15 -6 -20 24 -16 6 1 21 -11 35 -26 18 -21 19 -24
4 -13 -18 13 -18 13 1 -10 29 -34 47 -70 50 -100 2 -23 1 -24 -9 -6 -19 31
-99 116 -110 116 -5 0 -4 -7 3 -15 7 -8 -8 -3 -34 11 -25 14 -51 24 -57 22 -9
-3 56 -60 115 -100 6 -4 7 -10 4 -13 -4 -4 -17 2 -29 14 -26 24 -94 61 -112
61 -7 0 9 -14 35 -30 25 -16 49 -34 53 -40 4 -7 -11 0 -34 14 -22 14 -42 26
-45 26 -8 0 -1 -35 9 -43 6 -5 1 -6 -10 -2 -76 27 -166 32 -215 11 -23 -10
-120 -100 -120 -112 0 -3 17 8 38 24 46 36 116 62 162 61 l35 -1 -40 -13 -40
-13 35 -2 35 -3 -35 -7 c-30 -6 -26 -8 30 -10 36 -2 55 -5 42 -7 -12 -2 -20
-8 -17 -13 3 -5 -10 -6 -30 -3 -34 5 -50 -9 -22 -20 7 -3 4 -6 -6 -6 -29 -1
-88 -32 -81 -42 3 -5 10 -6 16 -3 7 4 8 2 4 -5 -4 -6 -12 -9 -17 -6 -5 4 -9
-4 -9 -16 0 -22 2 -21 37 12 33 30 35 30 12 4 -55 -64 -74 -104 -41 -86 20 11
22 1 7 -51 -11 -41 1 -58 13 -18 l10 35 1 -33 c1 -18 -4 -42 -10 -54 -6 -11
-9 -22 -6 -24 2 -3 14 15 25 38 16 34 22 39 27 26 8 -21 22 -24 22 -5 0 21 35
87 44 82 4 -3 13 3 18 14 14 25 42 35 53 19 5 -9 8 -8 8 5 0 20 24 18 26 -1 1
-7 2 -16 3 -20 1 -10 74 -7 91 3 8 5 11 4 6 -3 -3 -6 -2 -13 3 -16 11 -7 9
-96 -3 -114 -10 -16 0 -29 35 -47 16 -9 29 -22 29 -30 0 -8 7 -15 16 -15 31 0
7 -25 -42 -42 -48 -17 -78 -43 -69 -59 3 -4 -1 -9 -7 -12 -7 -2 -10 -7 -7 -11
4 -4 42 2 85 12 52 13 86 17 101 11 26 -10 28 -18 12 -53 -11 -24 -35 -36 -76
-36 -21 0 -83 -44 -83 -60 0 -4 12 -5 26 -2 15 3 21 8 14 12 -8 5 -7 10 3 19
12 9 16 8 22 -6 5 -10 8 -21 7 -24 -1 -3 11 -4 26 -2 23 3 24 2 7 -6 -11 -5
-14 -10 -7 -10 22 -1 2 -21 -21 -21 -17 0 -19 -2 -8 -9 8 -5 37 -8 65 -5 33 2
57 -1 72 -11 27 -17 54 -20 54 -5 0 6 7 10 15 10 19 0 19 -10 0 -38 -24 -33
-45 -111 -45 -167 0 -27 -4 -56 -8 -63 -10 -14 -42 -6 -42 11 0 8 -3 8 -11 0
-8 -8 -8 -17 0 -31 6 -11 11 -25 11 -31 0 -13 -57 3 -79 23 -9 8 -25 16 -36
18 -38 7 -29 35 19 57 55 24 60 50 15 82 -17 12 -39 40 -49 63 -10 22 -32 58
-49 80 -17 21 -31 47 -31 57 0 11 -4 19 -9 19 -5 0 -17 7 -26 17 -13 13 -18
14 -25 3 -10 -16 -1 -90 13 -108 5 -7 7 -35 3 -65 -4 -38 -2 -59 8 -72 12 -17
11 -23 -11 -52 -31 -40 -25 -66 12 -57 19 5 25 2 25 -10 0 -9 -7 -16 -15 -16
-8 0 -15 -4 -15 -10 0 -5 6 -10 13 -10 8 0 24 -11 36 -24 l22 -24 -38 -5
c-161 -24 -233 -45 -233 -70 0 -21 57 -80 65 -68 4 7 11 8 18 3 7 -4 24 -9 38
-10 32 -2 82 -20 58 -21 -11 -1 -18 -12 -21 -30 -4 -27 -1 -30 30 -36 23 -4
39 -2 51 8 9 8 27 18 41 22 14 4 32 13 40 20 8 8 22 15 30 17 18 4 40 78 28
94 -5 7 0 18 12 29 11 10 20 30 20 44 1 25 2 25 20 -9 11 -19 19 -29 20 -22 0
6 4 12 9 12 14 0 -7 -77 -32 -115 -12 -19 -28 -35 -35 -35 -21 0 -43 -27 -36
-44 6 -15 -24 -76 -38 -76 -4 0 -5 -7 -1 -16 4 -10 -2 -17 -16 -21 -14 -3 -20
-11 -17 -20 6 -15 -7 -23 -46 -27 -13 -1 -29 -5 -35 -9 -6 -4 -18 -4 -27 -1
-9 3 -16 1 -16 -5 0 -14 -40 -14 -75 -1 -14 5 -24 6 -21 1 12 -19 99 -34 174
-29 42 3 82 3 88 1 20 -7 2 -54 -32 -87 -34 -33 -43 -59 -24 -71 6 -3 18 1 27
10 14 15 17 15 31 1 12 -12 16 -35 15 -91 -1 -56 2 -75 12 -75 25 0 53 49 60
107 4 31 15 78 25 103 9 25 17 57 16 73 -1 21 3 27 19 28 67 4 90 -10 78 -46
-3 -11 -7 -27 -8 -35 0 -9 -4 -21 -9 -28 -4 -7 -4 -22 0 -35 4 -12 6 -83 5
-157 -2 -123 -4 -138 -25 -170 -29 -43 -41 -80 -26 -80 6 0 13 7 16 15 13 33
25 12 23 -37 -5 -96 -57 -148 -145 -148 -27 0 -28 3 -13 31 9 17 4 29 -30 73
-33 45 -44 53 -70 52 -28 -1 -44 -14 -21 -17 6 -1 15 -2 20 -3 22 -2 9 -21
-17 -25 -25 -3 -26 -4 -8 -12 13 -5 0 -7 -35 -4 -48 4 -51 4 -23 -5 18 -6 34
-14 38 -19 5 -10 -54 -65 -62 -57 -8 8 8 27 30 35 l21 8 -22 12 c-19 10 -21 9
-15 -6 5 -12 2 -15 -10 -10 -9 3 -19 2 -22 -3 -8 -13 -44 -8 -49 7 -3 7 1 13
9 13 8 0 15 5 15 10 0 6 -10 10 -22 10 -16 0 -19 3 -10 9 7 4 12 14 10 22 -2
9 11 15 45 19 27 3 50 2 53 -2 3 -4 12 -8 21 -8 14 0 14 2 -1 19 -15 16 -15
20 -1 31 8 7 26 10 40 8 30 -6 31 1 5 35 -19 23 -24 25 -48 15 -35 -15 -47
-26 -39 -34 4 -4 13 -1 22 6 9 7 18 10 22 7 3 -4 -6 -12 -21 -18 -28 -13 -33
-24 -13 -32 6 -3 -1 -6 -16 -6 -19 -1 -27 3 -24 12 2 6 -2 20 -11 30 -14 15
-13 17 5 17 17 0 33 17 33 36 0 30 -129 -91 -161 -150 -23 -44 -23 -46 -6 -76
15 -25 16 -29 2 -24 -8 3 -15 11 -15 18 0 7 -4 6 -9 -3 -7 -10 -13 -11 -30 -2
-11 7 -22 13 -22 14 -6 10 -12 327 -6 327 10 0 -1 143 -14 185 l-9 30 20 -25
c26 -33 25 -21 -4 80 -14 47 -28 121 -32 165 l-7 79 26 -17 c15 -10 27 -15 27
-11 0 8 -43 43 -54 44 -5 0 -18 7 -28 17 -17 15 -18 14 -18 -34 0 -37 -7 -60
-25 -87 -14 -20 -32 -50 -40 -66 -8 -16 -41 -59 -73 -97 -33 -37 -69 -86 -80
-108 l-21 -40 0 35 c0 19 6 53 14 75 8 22 15 48 15 57 0 9 6 21 14 25 20 12
34 534 14 550 -11 9 -13 1 -13 -48 -1 -70 -18 -88 -82 -89 -24 0 -48 -7 -57
-15 -14 -14 -20 -14 -61 0 -54 18 -245 21 -294 4 -24 -8 -52 -8 -111 1 -74 11
-79 14 -83 39 -2 14 -5 -232 -6 -546 l-1 -573 1280 0 1280 0 0 572 0 571 -67
-8 c-38 -4 -137 -9 -222 -11 -85 -2 -158 -7 -162 -11 -4 -5 -11 -144 -15 -311
-8 -342 -3 -326 -88 -267 -36 24 -60 51 -80 90 -25 48 -64 91 -134 147 -20 16
-20 22 -15 187 l6 171 -30 0 c-35 0 -41 11 -33 60 4 32 8 35 40 37 43 2 52 14
91 131 26 80 30 107 26 156 -6 69 -24 94 -55 77 -11 -6 -22 -11 -24 -11 -4 0
-1 124 11 415 5 140 5 234 -1 240 -5 5 -40 10 -78 11 l-70 0 -84 82 c-46 45
-86 82 -88 82 -8 0 -112 20 -128 25 -8 2 -21 -3 -28 -10z m-17 -1325 c2 -4 23
-6 46 -4 28 3 39 0 36 -9 -2 -6 -18 -13 -37 -14 -18 -2 -38 -10 -44 -18 -10
-13 -32 -19 -106 -27 -27 -3 -89 14 -100 27 -19 22 60 53 137 53 35 0 65 -4
68 -8z"/>
<path d="M1020 1585 c-7 -8 -19 -15 -28 -15 -30 0 -102 -43 -102 -62 0 -10 5
-18 11 -18 19 0 50 21 44 31 -4 5 -1 9 4 9 6 0 11 -3 11 -8 0 -4 10 -12 23
-17 12 -6 21 -18 20 -29 -1 -16 4 -17 35 -12 48 7 61 23 64 76 3 38 0 45 -14
44 -10 -1 -18 2 -18 7 0 15 -37 10 -50 -6z"/>
</g>
</svg>
